<svg xmlns="http://www.w3.org/2000/svg" viewBox="0 0 970 451" role="img" aria-label="Typhoon Logo">
  <g fill="#efe2c3" stroke="none">
    <path d="M 969.0 141.5 L 966.0 141.5 L 964.0 142.5 L 961.0 142.5 L 959.0 143.5 L 956.0 143.5 L 954.0 144.5 L 951.0 144.5 L 949.0 145.5 L 946.0 145.5 L 944.0 146.5 L 941.0 146.5 L 939.0 147.5 L 936.0 147.5 L 934.0 148.5 L 931.0 148.5 L 929.0 149.5 L 926.5 150.0 L 924.0 150.5 L 922.0 151.5 L 919.0 151.5 L 917.0 152.5 L 914.0 152.5 L 912.0 153.5 L 909.5 154.0 L 907.0 154.5 L 905.0 155.5 L 902.0 155.5 L 900.0 156.5 L 897.5 157.0 L 895.0 157.5 L 893.0 158.5 L 890.0 158.5 L 888.0 159.5 L 885.5 160.0 L 883.0 160.5 L 881.0 161.5 L 878.0 161.5 L 876.0 162.5 L 873.0 162.5 L 871.0 163.5 L 868.5 164.0 L 866.0 164.5 L 864.0 165.5 L 861.5 166.0 L 859.0 166.5 L 857.0 167.5 L 854.0 167.5 L 852.0 168.5 L 850.0 169.5 L 847.0 169.5 L 845.0 170.5 L 842.0 170.5 L 840.0 171.5 L 837.5 172.0 L 835.0 172.5 L 832.0 172.5 L 830.0 173.5 L 827.0 173.5 L 824.0 173.5 L 821.0 173.5 L 818.0 173.5 L 815.0 173.5 L 812.0 173.5 L 809.5 173.0 L 807.0 172.5 L 805.0 171.5 L 802.5 171.0 L 800.0 170.5 L 798.5 169.0 L 796.5 168.0 L 795.0 166.5 L 793.5 165.0 L 791.5 164.0 L 790.5 162.0 L 789.0 160.5 L 788.0 158.5 L 787.0 156.5 L 786.0 154.5 L 785.0 152.5 L 784.5 150.0 L 783.5 148.0 L 782.5 146.0 L 782.0 143.5 L 781.5 141.0 L 780.5 139.0 L 779.5 137.0 L 778.0 135.5 L 775.0 135.5 L 773.0 136.5 L 770.0 136.5 L 768.0 137.5 L 766.0 138.5 L 764.0 139.5 L 762.0 140.5 L 760.5 142.0 L 759.0 143.5 L 757.0 144.5 L 755.5 146.0 L 754.0 147.5 L 752.0 148.5 L 750.5 150.0 L 749.0 151.5 L 747.5 153.0 L 746.0 154.5 L 744.5 156.0 L 743.0 157.5 L 741.5 159.0 L 740.0 160.5 L 738.5 162.0 L 737.5 164.0 L 736.0 165.5 L 734.5 167.0 L 733.0 168.5 L 731.5 170.0 L 730.0 171.5 L 728.5 173.0 L 727.0 174.5 L 725.0 175.5 L 722.5 175.0 L 720.5 174.0 L 719.0 172.5 L 718.5 170.0 L 718.5 167.0 L 719.5 165.0 L 720.5 163.0 L 721.0 160.5 L 722.0 158.5 L 722.5 156.0 L 723.5 154.0 L 724.5 152.0 L 725.5 150.0 L 726.5 148.0 L 727.5 146.0 L 728.0 143.5 L 729.0 141.5 L 729.5 139.0 L 730.5 137.0 L 729.0 135.5 L 727.0 136.5 L 725.0 137.5 L 723.0 138.5 L 720.5 139.0 L 719.0 140.5 L 717.0 141.5 L 715.0 142.5 L 713.0 143.5 L 711.5 145.0 L 709.5 146.0 L 707.5 147.0 L 705.5 148.0 L 703.5 149.0 L 701.5 150.0 L 699.5 151.0 L 698.0 152.5 L 695.5 153.0 L 694.0 154.5 L 691.5 155.0 L 689.5 156.0 L 688.0 157.5 L 686.5 159.0 L 685.5 161.0 L 684.5 163.0 L 683.5 165.0 L 682.5 167.0 L 681.5 169.0 L 680.5 171.0 L 679.5 173.0 L 678.0 174.5 L 676.5 176.0 L 675.5 178.0 L 674.0 179.5 L 672.5 181.0 L 671.5 183.0 L 669.5 184.0 L 668.5 186.0 L 666.5 187.0 L 665.0 188.5 L 663.0 189.5 L 661.5 191.0 L 660.0 192.5 L 658.0 193.5 L 656.0 194.5 L 654.0 195.5 L 652.0 196.5 L 650.0 197.5 L 647.5 198.0 L 645.0 198.5 L 642.0 198.5 L 640.0 197.5 L 638.0 196.5 L 636.0 195.5 L 634.5 194.0 L 633.5 192.0 L 632.5 190.0 L 631.5 188.0 L 631.5 185.0 L 631.5 182.0 L 631.5 179.0 L 631.5 176.0 L 632.5 174.0 L 633.0 171.5 L 634.0 169.5 L 635.0 167.5 L 636.0 165.5 L 635.5 164.0 L 634.0 164.5 L 631.5 165.0 L 630.0 166.5 L 628.0 167.5 L 626.0 168.5 L 624.0 169.5 L 622.0 170.5 L 620.0 171.5 L 618.0 172.5 L 616.0 173.5 L 614.0 174.5 L 612.5 176.0 L 612.0 178.5 L 611.0 180.5 L 610.0 182.5 L 609.0 184.5 L 608.0 186.5 L 607.0 188.5 L 605.5 190.0 L 604.5 192.0 L 603.0 193.5 L 601.5 195.0 L 600.5 197.0 L 599.0 198.5 L 597.5 200.0 L 596.0 201.5 L 594.0 202.5 L 592.5 204.0 L 591.0 205.5 L 589.0 206.5 L 587.0 207.5 L 585.5 209.0 L 583.5 210.0 L 581.0 210.5 L 579.0 211.5 L 577.0 212.5 L 574.0 212.5 L 571.0 212.5 L 569.0 211.5 L 566.5 211.0 L 564.5 210.0 L 563.5 208.0 L 562.0 206.5 L 561.5 204.0 L 560.5 202.0 L 560.5 199.0 L 560.5 196.0 L 560.5 193.0 L 561.5 191.0 L 560.0 189.5 L 558.5 191.0 L 557.0 192.5 L 555.5 194.0 L 554.0 195.5 L 552.5 197.0 L 551.0 198.5 L 549.5 200.0 L 548.0 201.5 L 546.5 203.0 L 545.0 204.5 L 543.0 205.5 L 541.5 207.0 L 540.0 208.5 L 538.5 210.0 L 537.0 211.5 L 535.0 212.5 L 533.5 214.0 L 531.5 215.0 L 529.5 216.0 L 527.0 216.5 L 524.0 216.5 L 521.0 216.5 L 519.0 215.5 L 517.0 214.5 L 515.5 213.0 L 514.5 211.0 L 513.5 209.0 L 513.5 206.0 L 512.5 204.0 L 512.5 201.0 L 512.5 198.0 L 512.5 195.0 L 513.5 193.0 L 513.5 190.0 L 513.5 187.0 L 514.5 185.0 L 514.5 182.0 L 514.5 179.0 L 513.0 177.5 L 511.5 179.0 L 509.5 180.0 L 508.0 181.5 L 506.0 182.5 L 504.5 184.0 L 503.0 185.5 L 501.5 187.0 L 500.0 188.5 L 498.0 189.5 L 496.5 191.0 L 495.0 192.5 L 493.5 194.0 L 492.0 195.5 L 490.5 197.0 L 489.0 198.5 L 487.5 200.0 L 486.5 202.0 L 485.0 203.5 L 483.5 205.0 L 482.0 206.5 L 480.5 208.0 L 479.0 209.5 L 477.5 211.0 L 476.5 213.0 L 475.0 214.5 L 473.5 216.0 L 472.0 217.5 L 470.5 219.0 L 469.5 221.0 L 468.0 222.5 L 466.5 224.0 L 465.0 225.5 L 463.5 227.0 L 462.5 229.0 L 461.0 230.5 L 459.0 231.5 L 457.5 233.0 L 456.0 234.5 L 454.0 235.5 L 451.0 235.5 L 449.0 234.5 L 448.5 232.0 L 447.5 230.0 L 447.5 227.0 L 447.5 224.0 L 448.5 222.0 L 448.5 219.0 L 449.0 216.5 L 449.5 214.0 L 450.0 211.5 L 450.5 209.0 L 451.5 207.0 L 451.5 204.0 L 452.5 202.0 L 453.0 199.5 L 453.5 197.0 L 454.5 195.0 L 455.0 192.5 L 455.5 190.0 L 456.5 188.0 L 457.5 186.0 L 457.5 183.0 L 458.5 181.0 L 459.5 179.0 L 460.0 176.5 L 460.5 174.0 L 461.5 172.0 L 462.5 170.0 L 463.0 167.5 L 463.5 165.0 L 464.5 163.0 L 465.5 161.0 L 466.0 158.5 L 466.5 156.0 L 467.5 154.0 L 468.5 152.0 L 469.0 149.5 L 469.5 147.0 L 470.5 145.0 L 471.5 143.0 L 472.5 141.0 L 473.0 138.5 L 474.0 136.5 L 474.5 134.0 L 475.5 132.0 L 476.5 130.0 L 477.5 128.0 L 478.5 126.0 L 479.5 124.0 L 480.5 122.0 L 481.0 119.5 L 482.0 117.5 L 482.5 115.0 L 483.5 113.0 L 484.5 111.0 L 485.5 109.0 L 486.5 107.0 L 487.5 105.0 L 488.5 103.0 L 489.5 101.0 L 490.5 99.0 L 491.5 97.0 L 492.5 95.0 L 494.0 93.5 L 495.0 91.5 L 495.5 89.0 L 497.0 87.5 L 498.0 85.5 L 499.0 83.5 L 500.5 82.0 L 501.5 80.0 L 502.5 78.0 L 503.5 76.0 L 505.0 74.5 L 506.0 72.5 L 507.0 70.5 L 508.5 69.0 L 509.5 67.0 L 511.0 65.5 L 512.0 63.5 L 513.5 62.0 L 514.5 60.0 L 516.0 58.5 L 517.0 56.5 L 518.5 55.0 L 520.0 53.5 L 521.5 52.0 L 522.5 50.0 L 524.0 48.5 L 525.5 47.0 L 527.0 45.5 L 528.5 44.0 L 530.0 42.5 L 531.5 41.0 L 533.0 39.5 L 535.0 38.5 L 536.5 37.0 L 538.0 35.5 L 540.0 34.5 L 542.0 33.5 L 543.5 32.0 L 545.5 31.0 L 547.5 30.0 L 549.5 29.0 L 552.0 28.5 L 554.0 27.5 L 556.0 26.5 L 559.0 26.5 L 561.0 25.5 L 564.0 25.5 L 567.0 25.5 L 570.0 25.5 L 573.0 25.5 L 576.0 25.5 L 578.0 26.5 L 580.0 27.5 L 582.0 28.5 L 584.0 29.5 L 585.5 31.0 L 587.0 32.5 L 588.5 34.0 L 589.5 36.0 L 590.5 38.0 L 591.5 40.0 L 592.5 42.0 L 592.5 45.0 L 593.5 47.0 L 593.5 50.0 L 593.5 53.0 L 593.5 56.0 L 593.0 58.5 L 592.5 61.0 L 592.0 63.5 L 591.5 66.0 L 590.5 68.0 L 590.0 70.5 L 589.5 73.0 L 588.5 75.0 L 587.5 77.0 L 586.5 79.0 L 586.0 81.5 L 584.5 83.0 L 584.0 85.5 L 583.0 87.5 L 582.0 89.5 L 581.0 91.5 L 579.5 93.0 L 578.5 95.0 L 577.5 97.0 L 576.5 99.0 L 575.5 101.0 L 574.0 102.5 L 573.0 104.5 L 571.5 106.0 L 570.5 108.0 L 569.5 110.0 L 568.0 111.5 L 566.5 113.0 L 565.5 115.0 L 564.0 116.5 L 563.0 118.5 L 561.5 120.0 L 560.5 122.0 L 559.0 123.5 L 557.5 125.0 L 556.5 127.0 L 555.0 128.5 L 553.5 130.0 L 552.0 131.5 L 551.0 133.5 L 549.5 135.0 L 548.0 136.5 L 546.5 138.0 L 545.5 140.0 L 544.0 141.5 L 542.5 143.0 L 541.0 144.5 L 539.0 145.5 L 539.5 144.0 L 540.5 142.0 L 542.0 140.5 L 543.0 138.5 L 544.5 137.0 L 545.5 135.0 L 547.0 133.5 L 548.5 132.0 L 549.5 130.0 L 551.0 128.5 L 552.0 126.5 L 553.5 125.0 L 554.5 123.0 L 555.5 121.0 L 557.0 119.5 L 558.5 118.0 L 559.5 116.0 L 561.0 114.5 L 562.0 112.5 L 563.5 111.0 L 564.5 109.0 L 566.0 107.5 L 567.0 105.5 L 568.0 103.5 L 569.5 102.0 L 570.5 100.0 L 571.5 98.0 L 573.0 96.5 L 574.0 94.5 L 575.0 92.5 L 576.0 90.5 L 577.0 88.5 L 578.0 86.5 L 579.0 84.5 L 580.0 82.5 L 581.0 80.5 L 582.0 78.5 L 583.0 76.5 L 583.5 74.0 L 584.5 72.0 L 585.5 70.0 L 586.5 68.0 L 586.5 65.0 L 587.5 63.0 L 587.5 60.0 L 588.5 58.0 L 588.5 55.0 L 588.5 52.0 L 588.5 49.0 L 588.5 46.0 L 587.5 44.0 L 587.0 41.5 L 586.0 39.5 L 584.5 38.0 L 583.5 36.0 L 582.0 34.5 L 580.0 33.5 L 578.0 32.5 L 576.0 31.5 L 574.0 30.5 L 571.0 30.5 L 568.0 30.5 L 565.0 30.5 L 562.5 31.0 L 560.0 31.5 L 558.0 32.5 L 556.0 33.5 L 554.0 34.5 L 551.5 35.0 L 550.0 36.5 L 548.0 37.5 L 546.0 38.5 L 544.0 39.5 L 542.5 41.0 L 541.0 42.5 L 539.5 44.0 L 537.5 45.0 L 536.0 46.5 L 534.5 48.0 L 533.5 50.0 L 532.0 51.5 L 530.5 53.0 L 529.0 54.5 L 528.0 56.5 L 526.5 58.0 L 525.0 59.5 L 524.0 61.5 L 522.5 63.0 L 521.5 65.0 L 520.0 66.5 L 519.0 68.5 L 517.5 70.0 L 516.5 72.0 L 515.5 74.0 L 514.5 76.0 L 513.0 77.5 L 512.0 79.5 L 511.0 81.5 L 509.5 83.0 L 508.5 85.0 L 507.5 87.0 L 506.5 89.0 L 505.5 91.0 L 504.5 93.0 L 503.5 95.0 L 502.5 97.0 L 501.5 99.0 L 500.5 101.0 L 499.5 103.0 L 498.5 105.0 L 497.5 107.0 L 496.5 109.0 L 495.5 111.0 L 494.5 113.0 L 493.5 115.0 L 492.5 117.0 L 491.5 119.0 L 491.0 121.5 L 490.0 123.5 L 489.0 125.5 L 488.5 128.0 L 487.5 130.0 L 486.5 132.0 L 485.5 134.0 L 484.5 136.0 L 484.0 138.5 L 483.0 140.5 L 482.5 143.0 L 481.5 145.0 L 480.5 147.0 L 479.5 149.0 L 479.0 151.5 L 478.5 154.0 L 477.5 156.0 L 476.5 158.0 L 476.0 160.5 L 475.5 163.0 L 474.5 165.0 L 473.5 167.0 L 473.5 170.0 L 472.5 172.0 L 471.5 174.0 L 471.0 176.5 L 470.5 179.0 L 469.5 181.0 L 468.5 183.0 L 468.5 186.0 L 467.5 188.0 L 466.5 190.0 L 465.5 192.0 L 465.0 194.5 L 464.5 197.0 L 463.5 199.0 L 463.5 202.0 L 462.5 204.0 L 461.5 206.0 L 461.5 209.0 L 460.5 211.0 L 459.5 213.0 L 459.5 216.0 L 458.5 218.0 L 459.5 220.0 L 461.0 219.5 L 462.5 218.0 L 464.0 216.5 L 465.5 215.0 L 467.0 213.5 L 468.5 212.0 L 469.5 210.0 L 471.0 208.5 L 472.5 207.0 L 474.0 205.5 L 475.5 204.0 L 477.0 202.5 L 478.5 201.0 L 480.0 199.5 L 481.5 198.0 L 483.0 196.5 L 484.5 195.0 L 485.5 193.0 L 487.0 191.5 L 488.5 190.0 L 490.0 188.5 L 492.0 187.5 L 493.5 186.0 L 495.0 184.5 L 496.5 183.0 L 498.0 181.5 L 500.0 180.5 L 501.5 179.0 L 503.0 177.5 L 504.5 176.0 L 506.0 174.5 L 508.0 173.5 L 509.5 172.0 L 511.5 171.0 L 513.5 170.0 L 515.5 169.0 L 517.5 168.0 L 520.0 167.5 L 522.5 168.0 L 524.5 169.0 L 525.5 171.0 L 525.5 174.0 L 525.5 177.0 L 525.5 180.0 L 524.5 182.0 L 524.5 185.0 L 523.5 187.0 L 523.5 190.0 L 523.5 193.0 L 522.5 195.0 L 522.5 198.0 L 522.5 201.0 L 522.5 204.0 L 522.5 207.0 L 523.5 209.0 L 525.0 210.5 L 527.5 210.0 L 529.5 209.0 L 531.0 207.5 L 533.0 206.5 L 534.5 205.0 L 536.0 203.5 L 538.0 202.5 L 539.5 201.0 L 541.5 200.0 L 543.0 198.5 L 544.5 197.0 L 546.0 195.5 L 547.5 194.0 L 549.0 192.5 L 550.5 191.0 L 552.0 189.5 L 553.5 188.0 L 555.0 186.5 L 556.5 185.0 L 558.0 183.5 L 559.5 182.0 L 561.0 180.5 L 562.5 179.0 L 564.0 177.5 L 565.5 176.0 L 567.0 174.5 L 568.5 173.0 L 570.0 171.5 L 571.5 170.0 L 573.0 168.5 L 574.5 167.0 L 576.0 165.5 L 577.5 164.0 L 579.0 162.5 L 581.0 161.5 L 583.0 160.5 L 585.0 159.5 L 587.0 158.5 L 589.0 157.5 L 592.0 157.5 L 594.0 156.5 L 597.0 156.5 L 600.0 156.5 L 602.5 157.0 L 605.0 157.5 L 607.0 158.5 L 609.0 159.5 L 610.5 161.0 L 611.5 163.0 L 612.5 165.0 L 613.5 167.0 L 615.5 167.0 L 617.5 166.0 L 619.5 165.0 L 621.5 164.0 L 623.5 163.0 L 626.0 162.5 L 627.5 161.0 L 630.0 160.5 L 632.0 159.5 L 634.0 158.5 L 636.0 157.5 L 638.0 156.5 L 639.5 155.0 L 641.5 154.0 L 643.0 152.5 L 645.0 151.5 L 647.0 150.5 L 648.5 149.0 L 650.0 147.5 L 651.5 146.0 L 653.0 144.5 L 654.0 142.5 L 656.0 141.5 L 657.5 140.0 L 659.5 139.0 L 661.5 138.0 L 663.5 137.0 L 666.0 136.5 L 668.0 135.5 L 671.0 135.5 L 674.0 135.5 L 675.5 135.0 L 678.0 135.5 L 681.0 135.5 L 683.0 136.5 L 685.0 137.5 L 686.5 139.0 L 687.5 141.0 L 688.5 143.0 L 688.5 146.0 L 690.0 147.5 L 692.0 148.5 L 694.0 147.5 L 696.0 146.5 L 698.0 145.5 L 700.0 144.5 L 702.0 143.5 L 704.0 142.5 L 706.0 141.5 L 708.0 140.5 L 710.0 139.5 L 712.0 138.5 L 713.5 137.0 L 715.5 136.0 L 717.5 135.0 L 719.0 133.5 L 721.0 132.5 L 723.0 131.5 L 725.0 130.5 L 727.0 129.5 L 729.0 128.5 L 731.0 127.5 L 733.0 126.5 L 735.0 125.5 L 738.0 125.5 L 741.0 125.5 L 742.5 127.0 L 743.5 129.0 L 743.0 131.5 L 742.0 133.5 L 741.5 136.0 L 740.5 138.0 L 739.5 140.0 L 738.5 142.0 L 738.0 144.5 L 737.5 147.0 L 736.5 149.0 L 735.5 151.0 L 735.0 153.5 L 735.0 155.5 L 736.5 156.0 L 738.0 154.5 L 739.5 153.0 L 741.0 151.5 L 742.5 150.0 L 744.0 148.5 L 745.5 147.0 L 747.0 145.5 L 748.5 144.0 L 750.0 142.5 L 752.0 141.5 L 754.0 140.5 L 755.5 139.0 L 757.0 137.5 L 759.0 136.5 L 761.0 135.5 L 762.5 134.0 L 764.5 133.0 L 766.5 132.0 L 768.5 131.0 L 770.5 130.0 L 773.0 129.5 L 775.0 128.5 L 778.0 128.5 L 780.0 127.5 L 783.0 127.5 L 785.0 128.5 L 786.5 130.0 L 787.5 132.0 L 788.5 134.0 L 789.0 136.5 L 789.5 139.0 L 790.5 141.0 L 791.0 143.5 L 791.5 146.0 L 792.5 148.0 L 793.5 150.0 L 794.0 152.5 L 795.0 154.5 L 796.0 156.5 L 797.0 158.5 L 798.5 160.0 L 799.5 162.0 L 801.0 163.5 L 802.5 165.0 L 804.5 166.0 L 806.5 167.0 L 809.0 167.5 L 811.0 168.5 L 813.0 169.5 L 816.0 169.5 L 819.0 169.5 L 822.0 169.5 L 824.0 168.5 L 827.0 168.5 L 829.5 168.0 L 832.0 167.5 L 835.0 167.5 L 837.0 166.5 L 839.5 166.0 L 842.0 165.5 L 844.0 164.5 L 847.0 164.5 L 849.0 163.5 L 851.0 162.5 L 854.0 162.5 L 856.0 161.5 L 858.5 161.0 L 861.0 160.5 L 863.5 160.0 L 866.0 159.5 L 868.5 159.0 L 871.0 158.5 L 873.5 158.0 L 876.0 157.5 L 878.0 156.5 L 881.0 156.5 L 883.0 155.5 L 886.0 155.5 L 888.0 154.5 L 890.5 154.0 L 893.0 153.5 L 895.5 153.0 L 898.0 152.5 L 900.0 151.5 L 903.0 151.5 L 905.0 150.5 L 908.0 150.5 L 910.0 149.5 L 913.0 149.5 L 915.0 148.5 L 918.0 148.5 L 920.0 147.5 L 923.0 147.5 L 925.0 146.5 L 928.0 146.5 L 930.0 145.5 L 933.0 145.5 L 935.0 144.5 L 938.0 144.5 L 940.0 143.5 L 943.0 143.5 L 945.0 142.5 L 948.0 142.5 L 950.0 141.5 L 953.0 141.5 L 955.0 140.5 L 958.0 140.5 L 960.5 140.0 L 963.0 139.5 L 966.0 139.5 L 968.0 138.5 Z"/><path d="M 0.0 227.5 L 2.0 226.5 L 4.0 225.5 L 5.5 224.0 L 7.5 223.0 L 9.5 222.0 L 11.0 220.5 L 13.0 219.5 L 15.0 218.5 L 17.0 217.5 L 19.0 216.5 L 21.0 215.5 L 22.5 214.0 L 24.0 212.5 L 26.0 211.5 L 28.0 210.5 L 30.0 209.5 L 32.0 208.5 L 34.0 207.5 L 35.5 206.0 L 37.5 205.0 L 39.5 204.0 L 41.0 202.5 L 43.0 201.5 L 45.0 200.5 L 47.0 199.5 L 49.0 198.5 L 51.0 197.5 L 52.5 196.0 L 54.5 195.0 L 56.5 194.0 L 58.5 193.0 L 60.5 192.0 L 62.0 190.5 L 64.0 189.5 L 66.0 188.5 L 68.0 187.5 L 70.0 186.5 L 72.0 185.5 L 74.0 184.5 L 76.0 183.5 L 78.0 182.5 L 80.0 181.5 L 82.0 180.5 L 84.0 179.5 L 86.0 178.5 L 88.0 177.5 L 90.0 176.5 L 92.0 175.5 L 94.0 174.5 L 96.0 173.5 L 98.0 172.5 L 100.0 171.5 L 102.0 170.5 L 104.0 169.5 L 106.0 168.5 L 108.0 167.5 L 110.0 166.5 L 112.0 165.5 L 114.0 164.5 L 116.0 163.5 L 118.0 162.5 L 120.0 161.5 L 122.0 160.5 L 124.0 159.5 L 126.0 158.5 L 128.0 157.5 L 130.5 157.0 L 132.5 156.0 L 134.5 155.0 L 137.0 154.5 L 139.0 153.5 L 141.0 152.5 L 143.0 151.5 L 145.0 150.5 L 147.0 149.5 L 149.5 149.0 L 151.5 148.0 L 154.0 147.5 L 156.0 146.5 L 158.0 145.5 L 160.0 144.5 L 162.0 143.5 L 164.5 143.0 L 166.5 142.0 L 169.0 141.5 L 170.5 140.0 L 173.0 139.5 L 175.0 138.5 L 177.0 137.5 L 179.0 136.5 L 181.5 136.0 L 183.5 135.0 L 186.0 134.5 L 188.0 133.5 L 190.0 132.5 L 192.0 131.5 L 194.0 130.5 L 197.0 130.5 L 199.0 129.5 L 201.0 128.5 L 203.0 127.5 L 205.0 126.5 L 207.0 125.5 L 209.5 125.0 L 211.5 124.0 L 214.0 123.5 L 216.0 122.5 L 218.0 121.5 L 220.0 120.5 L 222.5 120.0 L 225.0 119.5 L 227.0 118.5 L 229.0 117.5 L 231.5 117.0 L 233.5 116.0 L 236.0 115.5 L 238.0 114.5 L 240.0 113.5 L 242.5 113.0 L 244.5 112.0 L 245.5 110.0 L 246.5 108.0 L 247.5 106.0 L 248.5 104.0 L 249.5 102.0 L 250.5 100.0 L 251.5 98.0 L 252.5 96.0 L 254.0 94.5 L 256.0 93.5 L 258.0 92.5 L 260.0 91.5 L 262.0 90.5 L 264.5 91.0 L 264.5 94.0 L 263.5 96.0 L 262.5 98.0 L 261.5 100.0 L 260.5 102.0 L 259.5 104.0 L 258.5 106.0 L 260.0 107.5 L 262.0 106.5 L 265.0 106.5 L 267.0 105.5 L 269.0 104.5 L 271.5 104.0 L 274.0 103.5 L 276.0 102.5 L 278.0 101.5 L 280.0 100.5 L 283.0 100.5 L 285.0 99.5 L 287.0 98.5 L 290.0 98.5 L 292.0 97.5 L 294.0 96.5 L 296.0 95.5 L 299.0 95.5 L 301.0 94.5 L 303.0 93.5 L 305.5 93.0 L 308.0 92.5 L 310.0 91.5 L 312.0 90.5 L 315.0 90.5 L 317.0 89.5 L 319.5 89.0 L 322.0 88.5 L 324.0 87.5 L 327.0 87.5 L 329.0 86.5 L 331.0 85.5 L 334.0 85.5 L 336.0 84.5 L 338.5 84.0 L 341.0 83.5 L 343.0 82.5 L 345.5 82.0 L 348.0 81.5 L 350.0 80.5 L 353.0 80.5 L 355.0 79.5 L 357.0 78.5 L 360.0 78.5 L 362.0 77.5 L 365.0 77.5 L 367.0 76.5 L 369.5 76.0 L 372.0 75.5 L 374.0 74.5 L 377.0 74.5 L 379.0 73.5 L 382.0 73.5 L 384.0 72.5 L 386.0 71.5 L 389.0 71.5 L 391.0 70.5 L 393.5 70.0 L 396.0 69.5 L 398.5 69.0 L 401.0 68.5 L 403.0 67.5 L 406.0 67.5 L 408.5 67.0 L 411.0 66.5 L 414.0 66.5 L 416.0 65.5 L 419.0 65.5 L 422.0 65.5 L 425.0 65.5 L 427.0 64.5 L 429.5 65.0 L 432.0 65.5 L 435.0 65.5 L 437.5 66.0 L 436.0 67.5 L 434.0 68.5 L 432.0 69.5 L 429.5 70.0 L 427.0 70.5 L 424.0 70.5 L 422.0 71.5 L 419.0 71.5 L 417.0 72.5 L 414.0 72.5 L 412.0 73.5 L 409.0 73.5 L 407.0 74.5 L 404.0 74.5 L 402.0 75.5 L 399.5 76.0 L 397.0 76.5 L 395.0 77.5 L 393.0 78.5 L 390.0 78.5 L 388.0 79.5 L 385.5 80.0 L 383.0 80.5 L 381.0 81.5 L 379.0 82.5 L 376.0 82.5 L 374.0 83.5 L 371.0 83.5 L 369.0 84.5 L 366.5 85.0 L 364.0 85.5 L 362.0 86.5 L 359.5 87.0 L 357.0 87.5 L 355.0 88.5 L 353.0 89.5 L 350.5 90.0 L 348.0 90.5 L 346.0 91.5 L 343.5 92.0 L 341.0 92.5 L 339.0 93.5 L 337.0 94.5 L 334.0 94.5 L 332.0 95.5 L 330.0 96.5 L 327.5 97.0 L 325.0 97.5 L 323.0 98.5 L 320.5 99.0 L 318.0 99.5 L 316.0 100.5 L 313.5 101.0 L 311.5 102.0 L 309.0 102.5 L 307.0 103.5 L 305.0 104.5 L 303.0 105.5 L 300.0 105.5 L 298.0 106.5 L 296.0 107.5 L 293.0 107.5 L 291.0 108.5 L 289.0 109.5 L 287.0 110.5 L 284.5 111.0 L 282.0 111.5 L 280.0 112.5 L 278.0 113.5 L 276.0 114.5 L 273.5 115.0 L 271.0 115.5 L 269.0 116.5 L 266.5 117.0 L 264.0 117.5 L 262.0 118.5 L 260.0 119.5 L 258.0 120.5 L 256.0 121.5 L 254.0 122.5 L 252.0 123.5 L 250.5 125.0 L 249.5 127.0 L 248.5 129.0 L 247.5 131.0 L 247.0 133.5 L 246.0 135.5 L 245.0 137.5 L 244.0 139.5 L 243.0 141.5 L 242.0 143.5 L 241.5 146.0 L 240.0 147.5 L 239.0 149.5 L 238.5 152.0 L 237.5 154.0 L 236.5 156.0 L 235.5 158.0 L 234.5 160.0 L 233.5 162.0 L 232.5 164.0 L 231.5 166.0 L 230.5 168.0 L 230.0 170.5 L 228.5 172.0 L 227.5 174.0 L 226.5 176.0 L 226.0 178.5 L 225.0 180.5 L 224.0 182.5 L 223.0 184.5 L 222.0 186.5 L 221.0 188.5 L 220.5 191.0 L 219.0 192.5 L 218.0 194.5 L 217.0 196.5 L 216.0 198.5 L 215.0 200.5 L 214.0 202.5 L 213.5 205.0 L 212.5 207.0 L 211.5 209.0 L 210.5 211.0 L 209.5 213.0 L 208.5 215.0 L 207.5 217.0 L 206.5 219.0 L 205.5 221.0 L 204.5 223.0 L 203.5 225.0 L 202.5 227.0 L 201.5 229.0 L 200.5 231.0 L 199.5 233.0 L 198.5 235.0 L 197.5 237.0 L 196.5 239.0 L 195.5 241.0 L 194.5 243.0 L 194.0 245.5 L 193.0 247.5 L 192.0 249.5 L 191.0 251.5 L 190.0 253.5 L 189.0 255.5 L 188.5 258.0 L 187.5 260.0 L 186.5 262.0 L 185.5 264.0 L 184.5 266.0 L 183.5 268.0 L 182.5 270.0 L 181.5 272.0 L 180.5 274.0 L 179.5 276.0 L 178.5 278.0 L 177.5 280.0 L 176.5 282.0 L 176.0 284.5 L 175.0 286.5 L 174.0 288.5 L 173.0 290.5 L 172.0 292.5 L 171.5 295.0 L 170.5 297.0 L 169.5 299.0 L 168.5 301.0 L 167.5 303.0 L 166.5 305.0 L 166.0 307.5 L 164.5 309.0 L 164.0 311.5 L 163.0 313.5 L 162.0 315.5 L 161.0 317.5 L 160.5 320.0 L 159.5 322.0 L 158.5 324.0 L 157.5 326.0 L 157.0 328.5 L 156.0 330.5 L 155.5 333.0 L 154.5 335.0 L 153.5 337.0 L 152.5 339.0 L 151.5 341.0 L 151.0 343.5 L 150.5 346.0 L 149.5 348.0 L 148.5 350.0 L 146.5 350.0 L 146.5 347.0 L 146.5 344.0 L 146.5 341.0 L 147.5 339.0 L 148.0 336.5 L 149.0 334.5 L 149.5 332.0 L 150.5 330.0 L 151.5 328.0 L 152.5 326.0 L 152.5 323.0 L 153.5 321.0 L 154.5 319.0 L 155.5 317.0 L 156.0 314.5 L 156.5 312.0 L 157.5 310.0 L 158.5 308.0 L 159.5 306.0 L 160.0 303.5 L 160.5 301.0 L 161.5 299.0 L 162.5 297.0 L 163.5 295.0 L 164.5 293.0 L 165.5 291.0 L 166.0 288.5 L 167.0 286.5 L 167.5 284.0 L 168.5 282.0 L 169.5 280.0 L 170.5 278.0 L 171.5 276.0 L 172.5 274.0 L 173.0 271.5 L 174.0 269.5 L 174.5 267.0 L 175.5 265.0 L 176.5 263.0 L 177.5 261.0 L 178.5 259.0 L 179.5 257.0 L 180.5 255.0 L 181.0 252.5 L 182.0 250.5 L 183.0 248.5 L 183.5 246.0 L 184.5 244.0 L 185.5 242.0 L 186.5 240.0 L 187.5 238.0 L 188.5 236.0 L 189.0 233.5 L 190.0 231.5 L 191.0 229.5 L 191.5 227.0 L 192.5 225.0 L 193.5 223.0 L 194.5 221.0 L 195.5 219.0 L 196.5 217.0 L 197.5 215.0 L 198.5 213.0 L 199.0 210.5 L 200.0 208.5 L 201.0 206.5 L 202.0 204.5 L 203.0 202.5 L 203.5 200.0 L 204.5 198.0 L 205.5 196.0 L 206.5 194.0 L 207.5 192.0 L 208.5 190.0 L 209.5 188.0 L 210.5 186.0 L 211.5 184.0 L 212.5 182.0 L 213.5 180.0 L 214.5 178.0 L 215.5 176.0 L 216.5 174.0 L 217.5 172.0 L 218.5 170.0 L 219.5 168.0 L 220.0 165.5 L 221.0 163.5 L 222.0 161.5 L 223.0 159.5 L 224.0 157.5 L 224.5 155.0 L 225.5 153.0 L 226.5 151.0 L 227.5 149.0 L 228.5 147.0 L 229.5 145.0 L 230.5 143.0 L 231.5 141.0 L 232.5 139.0 L 233.5 137.0 L 234.5 135.0 L 235.5 133.0 L 236.0 130.5 L 235.5 129.0 L 233.5 129.0 L 231.0 129.5 L 229.0 130.5 L 227.0 131.5 L 224.5 132.0 L 222.0 132.5 L 220.0 133.5 L 218.0 134.5 L 215.5 135.0 L 213.0 135.5 L 211.0 136.5 L 209.0 137.5 L 207.0 138.5 L 204.5 139.0 L 202.5 140.0 L 200.0 140.5 L 198.0 141.5 L 196.0 142.5 L 194.0 143.5 L 192.0 144.5 L 189.5 145.0 L 187.5 146.0 L 185.0 146.5 L 183.0 147.5 L 181.0 148.5 L 179.0 149.5 L 177.0 150.5 L 174.5 151.0 L 172.5 152.0 L 170.5 153.0 L 168.0 153.5 L 166.0 154.5 L 164.0 155.5 L 162.0 156.5 L 160.0 157.5 L 158.0 158.5 L 156.0 159.5 L 153.5 160.0 L 151.5 161.0 L 149.0 161.5 L 147.0 162.5 L 145.0 163.5 L 143.0 164.5 L 141.0 165.5 L 139.0 166.5 L 137.0 167.5 L 134.5 168.0 L 132.5 169.0 L 130.5 170.0 L 128.5 171.0 L 126.5 172.0 L 124.5 173.0 L 122.5 174.0 L 120.5 175.0 L 118.0 175.5 L 116.0 176.5 L 114.0 177.5 L 112.0 178.5 L 110.0 179.5 L 108.0 180.5 L 106.0 181.5 L 104.0 182.5 L 102.0 183.5 L 100.0 184.5 L 98.0 185.5 L 96.0 186.5 L 94.0 187.5 L 92.0 188.5 L 90.0 189.5 L 87.5 190.0 L 85.5 191.0 L 83.5 192.0 L 82.0 193.5 L 79.5 194.0 L 78.0 195.5 L 76.0 196.5 L 74.0 197.5 L 72.0 198.5 L 70.0 199.5 L 68.0 200.5 L 66.0 201.5 L 64.0 202.5 L 62.0 203.5 L 60.5 205.0 L 58.5 206.0 L 56.5 207.0 L 54.5 208.0 L 53.0 209.5 L 51.0 210.5 L 49.0 211.5 L 47.0 212.5 L 45.0 213.5 L 43.0 214.5 L 41.0 215.5 L 39.0 216.5 L 37.5 218.0 L 35.5 219.0 L 33.5 220.0 L 31.5 221.0 L 29.5 222.0 L 28.0 223.5 L 26.0 224.5 L 24.0 225.5 L 22.0 226.5 L 20.0 227.5 L 18.5 229.0 L 16.0 229.5 L 14.5 231.0 L 12.5 232.0 L 10.5 233.0 L 10.0 234.5 L 12.0 235.5 L 14.0 234.5 L 17.0 234.5 L 19.0 233.5 L 22.0 233.5 L 25.0 233.5 L 27.0 232.5 L 30.0 232.5 L 32.0 231.5 L 35.0 231.5 L 37.0 230.5 L 40.0 230.5 L 43.0 230.5 L 45.0 229.5 L 48.0 229.5 L 51.0 229.5 L 53.0 228.5 L 56.0 228.5 L 58.5 228.0 L 61.0 227.5 L 64.0 227.5 L 67.0 227.5 L 69.0 226.5 L 72.0 226.5 L 74.5 226.0 L 77.0 225.5 L 80.0 225.5 L 82.0 224.5 L 85.0 224.5 L 87.5 224.0 L 90.0 223.5 L 93.0 223.5 L 96.0 223.5 L 98.0 222.5 L 101.0 222.5 L 104.0 222.5 L 106.0 221.5 L 109.0 221.5 L 112.0 221.5 L 114.0 220.5 L 117.0 220.5 L 120.0 220.5 L 122.0 219.5 L 125.0 219.5 L 128.0 219.5 L 130.5 219.0 L 133.0 218.5 L 136.0 218.5 L 138.5 218.0 L 141.0 217.5 L 144.0 217.5 L 147.0 217.5 L 149.0 216.5 L 152.0 216.5 L 155.0 216.5 L 158.0 216.5 L 160.0 215.5 L 163.0 215.5 L 166.0 215.5 L 167.0 216.5 L 164.0 216.5 L 162.0 217.5 L 159.0 217.5 L 156.0 217.5 L 154.0 218.5 L 151.0 218.5 L 148.0 218.5 L 146.0 219.5 L 143.0 219.5 L 140.5 220.0 L 138.0 220.5 L 135.0 220.5 L 132.0 220.5 L 130.0 221.5 L 127.0 221.5 L 124.0 221.5 L 122.0 222.5 L 119.0 222.5 L 116.5 223.0 L 114.0 223.5 L 111.0 223.5 L 109.0 224.5 L 106.0 224.5 L 103.0 224.5 L 101.0 225.5 L 98.0 225.5 L 96.0 226.5 L 93.0 226.5 L 90.0 226.5 L 88.0 227.5 L 85.0 227.5 L 82.5 228.0 L 80.0 228.5 L 77.0 228.5 L 74.5 229.0 L 72.0 229.5 L 69.0 229.5 L 67.0 230.5 L 64.0 230.5 L 62.0 231.5 L 59.0 231.5 L 57.0 232.5 L 54.0 232.5 L 51.5 233.0 L 49.0 233.5 L 46.0 233.5 L 44.0 234.5 L 41.5 235.0 L 39.0 235.5 L 36.0 235.5 L 34.0 236.5 L 31.5 237.0 L 29.0 237.5 L 26.5 238.0 L 24.0 238.5 L 21.0 238.5 L 19.0 239.5 L 16.0 239.5 L 14.0 240.5 L 11.0 240.5 L 9.0 241.5 L 6.5 242.0 L 4.0 242.5 L 2.0 243.5 Z"/><path d="M 672.5 154.0 L 675.0 153.5 L 678.0 153.5 L 680.0 152.5 L 682.0 151.5 L 683.5 150.0 L 683.5 147.0 L 682.5 145.0 L 681.0 143.5 L 679.5 142.0 L 678.0 140.5 L 675.0 140.5 L 672.0 140.5 L 670.0 141.5 L 668.0 142.5 L 665.5 143.0 L 663.5 144.0 L 662.0 145.5 L 660.5 147.0 L 659.5 149.0 L 659.0 150.5 L 660.5 152.0 L 662.0 153.5 L 665.0 153.5 L 667.0 154.5 L 670.0 154.5 L 672.5 154.0 Z"/><path d="M 651.5 190.0 L 653.5 189.0 L 655.0 187.5 L 657.0 186.5 L 658.5 185.0 L 660.0 183.5 L 661.5 182.0 L 663.0 180.5 L 664.5 179.0 L 666.0 177.5 L 667.5 176.0 L 669.0 174.5 L 670.0 172.5 L 671.5 171.0 L 672.5 169.0 L 674.0 167.5 L 675.5 166.0 L 676.5 164.0 L 677.5 162.0 L 678.0 160.5 L 676.0 159.5 L 673.5 160.0 L 671.0 160.5 L 668.0 160.5 L 665.0 160.5 L 662.5 160.0 L 660.0 159.5 L 658.0 158.5 L 656.0 157.5 L 654.5 156.0 L 653.0 156.5 L 651.5 158.0 L 650.0 159.5 L 648.5 161.0 L 647.5 163.0 L 646.5 165.0 L 645.5 167.0 L 644.5 169.0 L 643.5 171.0 L 643.0 173.5 L 642.5 176.0 L 641.5 178.0 L 641.5 181.0 L 640.5 183.0 L 641.0 185.5 L 641.5 188.0 L 643.0 189.5 L 645.0 190.5 L 648.0 190.5 L 651.0 190.5 Z"/><path d="M 239.0 425.5 L 236.0 425.5 L 233.0 425.5 L 231.5 424.0 L 230.5 422.0 L 229.5 420.0 L 229.5 417.0 L 229.5 414.0 L 229.5 411.0 L 229.5 408.0 L 230.5 406.0 L 230.5 403.0 L 231.5 401.0 L 231.5 398.0 L 232.5 396.0 L 233.5 394.0 L 234.0 391.5 L 234.5 389.0 L 235.5 387.0 L 236.5 385.0 L 237.5 383.0 L 238.5 381.0 L 239.0 378.5 L 240.0 376.5 L 241.0 374.5 L 242.0 372.5 L 243.0 370.5 L 244.0 368.5 L 245.0 366.5 L 246.0 364.5 L 247.0 362.5 L 248.0 360.5 L 249.0 358.5 L 250.0 356.5 L 251.5 355.0 L 252.5 353.0 L 253.5 351.0 L 254.5 349.0 L 255.5 347.0 L 256.5 345.0 L 258.0 343.5 L 259.0 341.5 L 260.0 339.5 L 261.5 338.0 L 262.5 336.0 L 263.5 334.0 L 264.5 332.0 L 266.0 330.5 L 267.5 329.0 L 268.5 327.0 L 269.5 325.0 L 271.0 323.5 L 272.0 321.5 L 273.5 320.0 L 274.5 318.0 L 275.5 316.0 L 277.0 314.5 L 278.5 313.0 L 279.5 311.0 L 281.0 309.5 L 282.0 307.5 L 283.5 306.0 L 285.0 304.5 L 286.0 302.5 L 287.5 301.0 L 288.5 299.0 L 290.0 297.5 L 291.5 296.0 L 292.5 294.0 L 294.0 292.5 L 295.5 291.0 L 297.0 289.5 L 298.5 288.0 L 299.5 286.0 L 301.0 284.5 L 302.5 283.0 L 304.0 281.5 L 305.0 279.5 L 306.5 278.0 L 308.0 276.5 L 308.5 274.0 L 309.5 272.0 L 310.0 269.5 L 310.5 267.0 L 311.5 265.0 L 312.5 263.0 L 313.0 260.5 L 313.5 258.0 L 314.5 256.0 L 315.0 253.5 L 315.5 251.0 L 316.5 249.0 L 317.5 247.0 L 318.0 244.5 L 318.5 242.0 L 319.5 240.0 L 320.0 237.5 L 320.5 235.0 L 321.5 233.0 L 322.5 231.0 L 323.5 229.0 L 324.0 226.5 L 324.5 224.0 L 325.5 222.0 L 326.5 220.0 L 327.5 218.0 L 328.0 215.5 L 327.5 214.0 L 326.0 214.5 L 324.0 215.5 L 322.0 216.5 L 320.0 217.5 L 318.0 218.5 L 316.0 219.5 L 314.5 221.0 L 313.0 222.5 L 311.0 223.5 L 309.5 225.0 L 308.0 226.5 L 306.0 227.5 L 304.0 228.5 L 302.5 230.0 L 301.0 231.5 L 299.5 233.0 L 298.0 234.5 L 296.5 236.0 L 295.0 237.5 L 293.0 238.5 L 291.5 240.0 L 290.0 241.5 L 288.0 242.5 L 286.5 244.0 L 285.0 245.5 L 283.5 247.0 L 281.5 248.0 L 280.0 249.5 L 278.5 251.0 L 277.0 252.5 L 275.5 254.0 L 273.5 255.0 L 272.0 256.5 L 270.5 258.0 L 268.5 259.0 L 267.0 260.5 L 265.0 261.5 L 263.0 262.5 L 261.0 263.5 L 258.0 263.5 L 256.0 262.5 L 254.0 261.5 L 252.0 260.5 L 251.0 258.5 L 250.5 256.0 L 250.5 253.0 L 251.5 251.0 L 252.0 248.5 L 252.5 246.0 L 253.5 244.0 L 254.5 242.0 L 255.0 239.5 L 255.5 237.0 L 256.5 235.0 L 257.5 233.0 L 258.5 231.0 L 259.5 229.0 L 260.0 226.5 L 260.5 224.0 L 261.5 222.0 L 262.0 220.5 L 260.5 220.0 L 259.0 221.5 L 257.0 222.5 L 255.0 223.5 L 253.0 224.5 L 251.5 226.0 L 249.5 227.0 L 248.0 228.5 L 246.0 229.5 L 244.5 231.0 L 243.0 232.5 L 241.0 233.5 L 239.5 235.0 L 237.5 236.0 L 236.0 237.5 L 234.0 238.5 L 232.0 239.5 L 230.5 241.0 L 229.0 242.5 L 227.0 243.5 L 225.5 245.0 L 223.5 246.0 L 222.0 247.5 L 220.0 248.5 L 218.5 250.0 L 216.5 251.0 L 215.0 252.5 L 213.0 253.5 L 211.5 255.0 L 209.5 256.0 L 208.0 257.5 L 206.0 258.5 L 204.5 260.0 L 202.5 261.0 L 200.5 262.0 L 199.0 263.5 L 197.0 264.5 L 195.0 265.5 L 193.0 266.5 L 192.0 265.5 L 193.5 264.0 L 195.0 262.5 L 197.0 261.5 L 198.5 260.0 L 200.0 258.5 L 201.5 257.0 L 203.0 255.5 L 204.5 254.0 L 206.5 253.0 L 208.0 251.5 L 209.5 250.0 L 211.0 248.5 L 213.0 247.5 L 214.5 246.0 L 216.0 244.5 L 217.5 243.0 L 219.5 242.0 L 221.0 240.5 L 223.0 239.5 L 224.5 238.0 L 226.0 236.5 L 228.0 235.5 L 229.5 234.0 L 231.0 232.5 L 233.0 231.5 L 234.5 230.0 L 236.5 229.0 L 238.0 227.5 L 240.0 226.5 L 241.5 225.0 L 243.5 224.0 L 245.0 222.5 L 247.0 221.5 L 248.5 220.0 L 250.5 219.0 L 252.0 217.5 L 254.0 216.5 L 256.0 215.5 L 258.0 214.5 L 259.5 213.0 L 261.5 212.0 L 263.0 210.5 L 265.0 209.5 L 267.0 208.5 L 268.5 207.0 L 270.0 205.5 L 272.0 204.5 L 275.0 204.5 L 278.0 204.5 L 279.5 206.0 L 279.5 209.0 L 278.5 211.0 L 278.0 213.5 L 277.0 215.5 L 276.5 218.0 L 275.0 219.5 L 274.0 221.5 L 273.5 224.0 L 272.5 226.0 L 271.5 228.0 L 270.5 230.0 L 269.5 232.0 L 268.5 234.0 L 267.5 236.0 L 266.5 238.0 L 265.5 240.0 L 265.0 242.5 L 263.5 244.0 L 263.0 246.5 L 262.5 249.0 L 261.5 251.0 L 260.5 253.0 L 261.5 255.0 L 263.0 254.5 L 265.0 253.5 L 266.5 252.0 L 268.0 250.5 L 269.5 249.0 L 271.0 247.5 L 273.0 246.5 L 274.5 245.0 L 276.0 243.5 L 277.5 242.0 L 279.5 241.0 L 281.0 239.5 L 282.5 238.0 L 284.0 236.5 L 286.0 235.5 L 287.5 234.0 L 289.0 232.5 L 290.5 231.0 L 292.5 230.0 L 294.0 228.5 L 295.5 227.0 L 297.5 226.0 L 299.0 224.5 L 300.5 223.0 L 302.0 221.5 L 304.0 220.5 L 305.5 219.0 L 307.0 217.5 L 309.0 216.5 L 310.5 215.0 L 312.0 213.5 L 314.0 212.5 L 316.0 211.5 L 317.5 210.0 L 319.5 209.0 L 321.5 208.0 L 324.0 207.5 L 326.0 206.5 L 328.0 205.5 L 331.0 205.5 L 334.0 205.5 L 336.0 206.5 L 337.5 208.0 L 338.5 210.0 L 338.5 213.0 L 338.0 215.5 L 337.5 218.0 L 336.5 220.0 L 335.5 222.0 L 335.0 224.5 L 334.5 227.0 L 333.5 229.0 L 333.0 231.5 L 332.5 234.0 L 331.5 236.0 L 330.5 238.0 L 329.5 240.0 L 329.0 242.5 L 328.0 244.5 L 327.5 247.0 L 326.5 249.0 L 325.5 251.0 L 325.0 253.5 L 324.0 255.5 L 324.5 257.0 L 326.0 256.5 L 327.5 255.0 L 329.0 253.5 L 330.5 252.0 L 332.0 250.5 L 333.5 249.0 L 335.0 247.5 L 336.5 246.0 L 338.5 245.0 L 339.5 243.0 L 341.0 241.5 L 343.0 240.5 L 344.5 239.0 L 346.0 237.5 L 347.5 236.0 L 349.0 234.5 L 350.5 233.0 L 352.0 231.5 L 353.5 230.0 L 355.0 228.5 L 356.5 227.0 L 358.5 226.0 L 360.0 224.5 L 361.5 223.0 L 363.0 221.5 L 364.5 220.0 L 366.0 218.5 L 367.5 217.0 L 369.0 215.5 L 370.0 213.5 L 370.5 211.0 L 371.5 209.0 L 372.5 207.0 L 373.0 204.5 L 374.0 202.5 L 374.5 200.0 L 375.5 198.0 L 376.5 196.0 L 377.5 194.0 L 378.0 191.5 L 379.0 189.5 L 379.5 187.0 L 380.5 185.0 L 381.5 183.0 L 382.0 180.5 L 382.5 178.0 L 383.5 176.0 L 384.5 174.0 L 385.5 172.0 L 386.5 170.0 L 388.0 168.5 L 390.0 167.5 L 392.0 166.5 L 394.0 167.5 L 395.5 169.0 L 396.5 171.0 L 395.5 173.0 L 395.0 175.5 L 394.5 178.0 L 393.5 180.0 L 392.5 182.0 L 391.5 184.0 L 391.0 186.5 L 390.5 189.0 L 389.5 191.0 L 388.5 193.0 L 387.5 195.0 L 387.0 197.5 L 386.5 200.0 L 385.5 202.0 L 384.5 204.0 L 386.0 205.5 L 388.0 204.5 L 389.5 203.0 L 391.5 202.0 L 393.0 200.5 L 395.0 199.5 L 397.0 198.5 L 399.0 197.5 L 400.5 196.0 L 402.5 195.0 L 404.5 194.0 L 406.5 193.0 L 408.5 192.0 L 411.0 191.5 L 413.0 190.5 L 415.5 190.0 L 418.0 189.5 L 421.0 189.5 L 423.5 190.0 L 426.0 190.5 L 428.0 191.5 L 430.0 192.5 L 432.0 193.5 L 433.5 195.0 L 434.5 197.0 L 435.5 199.0 L 435.5 202.0 L 435.0 204.5 L 434.5 207.0 L 433.5 209.0 L 432.5 211.0 L 432.0 213.5 L 431.5 216.0 L 430.5 218.0 L 429.0 219.5 L 427.5 221.0 L 426.5 223.0 L 425.5 225.0 L 424.0 226.5 L 422.5 228.0 L 421.5 230.0 L 420.0 231.5 L 419.0 233.5 L 417.5 235.0 L 416.5 237.0 L 415.0 238.5 L 413.5 240.0 L 412.0 241.5 L 410.5 243.0 L 409.0 244.5 L 407.5 246.0 L 406.0 247.5 L 404.5 249.0 L 403.0 250.5 L 401.5 252.0 L 400.0 253.5 L 398.0 254.5 L 396.5 256.0 L 395.0 257.5 L 393.0 258.5 L 391.5 260.0 L 389.5 261.0 L 387.5 262.0 L 386.0 263.5 L 383.5 264.0 L 381.5 265.0 L 379.0 265.5 L 376.5 265.0 L 377.0 262.5 L 378.5 261.0 L 380.5 260.0 L 382.0 258.5 L 383.5 257.0 L 385.0 255.5 L 387.0 254.5 L 388.5 253.0 L 390.5 252.0 L 392.0 250.5 L 393.0 248.5 L 394.5 247.0 L 396.0 245.5 L 397.5 244.0 L 399.0 242.5 L 400.5 241.0 L 402.0 239.5 L 403.5 238.0 L 404.5 236.0 L 406.0 234.5 L 407.5 233.0 L 408.5 231.0 L 410.0 229.5 L 411.5 228.0 L 412.5 226.0 L 414.0 224.5 L 415.0 222.5 L 416.5 221.0 L 417.5 219.0 L 418.5 217.0 L 419.5 215.0 L 420.5 213.0 L 421.5 211.0 L 422.5 209.0 L 423.5 207.0 L 423.5 204.0 L 424.5 202.0 L 423.5 200.0 L 422.5 198.0 L 421.0 196.5 L 418.0 196.5 L 415.0 196.5 L 412.5 197.0 L 410.5 198.0 L 408.0 198.5 L 406.0 199.5 L 404.5 201.0 L 402.5 202.0 L 400.5 203.0 L 399.0 204.5 L 397.0 205.5 L 395.0 206.5 L 393.5 208.0 L 391.5 209.0 L 390.0 210.5 L 388.5 212.0 L 387.0 213.5 L 385.0 214.5 L 383.5 216.0 L 381.5 217.0 L 380.0 218.5 L 379.0 220.5 L 378.5 223.0 L 377.5 225.0 L 376.5 227.0 L 375.5 229.0 L 375.0 231.5 L 374.5 234.0 L 373.5 236.0 L 372.5 238.0 L 371.5 240.0 L 371.0 242.5 L 370.5 245.0 L 369.5 247.0 L 369.0 249.5 L 368.5 252.0 L 367.5 254.0 L 366.5 256.0 L 366.0 258.5 L 365.5 261.0 L 364.5 263.0 L 363.5 265.0 L 363.0 267.5 L 362.5 270.0 L 361.5 272.0 L 360.5 274.0 L 359.5 276.0 L 359.0 278.5 L 358.0 280.5 L 357.5 283.0 L 356.5 285.0 L 355.5 287.0 L 355.0 289.5 L 354.5 292.0 L 353.5 294.0 L 352.5 296.0 L 351.5 298.0 L 351.0 300.5 L 350.5 303.0 L 349.5 305.0 L 348.5 307.0 L 347.5 309.0 L 347.0 311.5 L 346.5 314.0 L 345.5 316.0 L 344.5 318.0 L 343.5 320.0 L 343.0 322.5 L 342.0 324.5 L 341.5 327.0 L 340.5 329.0 L 339.5 331.0 L 338.5 333.0 L 337.5 335.0 L 337.0 337.5 L 336.0 339.5 L 335.5 342.0 L 334.5 344.0 L 333.5 346.0 L 333.0 348.5 L 332.0 350.5 L 331.0 352.5 L 330.0 354.5 L 329.5 357.0 L 328.5 359.0 L 327.5 361.0 L 326.5 363.0 L 325.5 365.0 L 324.5 367.0 L 323.5 369.0 L 322.5 371.0 L 321.5 373.0 L 320.5 375.0 L 319.5 377.0 L 318.5 379.0 L 317.5 381.0 L 316.5 380.0 L 317.5 378.0 L 318.0 375.5 L 318.5 373.0 L 319.5 371.0 L 319.5 368.0 L 320.5 366.0 L 321.5 364.0 L 322.0 361.5 L 322.5 359.0 L 323.5 357.0 L 324.5 355.0 L 325.0 352.5 L 326.0 350.5 L 326.5 348.0 L 327.5 346.0 L 328.0 343.5 L 328.5 341.0 L 329.5 339.0 L 330.5 337.0 L 331.0 334.5 L 332.0 332.5 L 332.5 330.0 L 333.5 328.0 L 334.5 326.0 L 335.0 323.5 L 335.5 321.0 L 336.5 319.0 L 337.0 316.5 L 337.5 314.0 L 338.5 312.0 L 339.5 310.0 L 340.0 307.5 L 340.5 305.0 L 341.5 303.0 L 342.5 301.0 L 343.0 298.5 L 343.5 296.0 L 344.5 294.0 L 345.0 291.5 L 345.5 289.0 L 346.5 287.0 L 347.5 285.0 L 348.0 282.5 L 348.5 280.0 L 349.5 278.0 L 350.5 276.0 L 351.0 273.5 L 351.5 271.0 L 352.5 269.0 L 353.0 266.5 L 354.0 264.5 L 354.5 262.0 L 355.5 260.0 L 356.5 258.0 L 356.5 255.0 L 357.5 253.0 L 358.5 251.0 L 359.0 248.5 L 359.5 246.0 L 360.5 244.0 L 361.5 242.0 L 362.0 239.5 L 362.5 237.0 L 363.5 235.0 L 364.0 232.5 L 364.0 230.5 L 362.5 230.0 L 361.0 231.5 L 359.5 233.0 L 358.0 234.5 L 356.5 236.0 L 355.0 237.5 L 353.5 239.0 L 352.0 240.5 L 350.5 242.0 L 349.0 243.5 L 347.0 244.5 L 345.5 246.0 L 344.0 247.5 L 342.5 249.0 L 341.0 250.5 L 340.0 252.5 L 338.5 254.0 L 337.0 255.5 L 335.5 257.0 L 334.0 258.5 L 332.5 260.0 L 331.0 261.5 L 329.5 263.0 L 328.0 264.5 L 326.5 266.0 L 325.5 268.0 L 324.0 269.5 L 322.5 271.0 L 321.5 273.0 L 320.0 274.5 L 319.0 276.5 L 318.5 279.0 L 317.5 281.0 L 317.5 284.0 L 316.5 286.0 L 315.5 288.0 L 314.5 290.0 L 314.0 292.5 L 313.0 294.5 L 312.5 297.0 L 311.5 299.0 L 310.5 301.0 L 310.0 303.5 L 309.5 306.0 L 308.5 308.0 L 307.5 310.0 L 307.0 312.5 L 306.0 314.5 L 305.5 317.0 L 304.5 319.0 L 303.5 321.0 L 303.0 323.5 L 302.5 326.0 L 301.5 328.0 L 300.5 330.0 L 299.5 332.0 L 298.5 334.0 L 297.5 336.0 L 297.0 338.5 L 295.5 340.0 L 295.0 342.5 L 294.0 344.5 L 293.0 346.5 L 292.0 348.5 L 291.0 350.5 L 290.0 352.5 L 289.0 354.5 L 288.0 356.5 L 287.0 358.5 L 286.0 360.5 L 285.0 362.5 L 284.0 364.5 L 283.0 366.5 L 282.0 368.5 L 281.0 370.5 L 280.0 372.5 L 279.0 374.5 L 277.5 376.0 L 276.5 378.0 L 275.5 380.0 L 274.5 382.0 L 273.5 384.0 L 272.5 386.0 L 271.0 387.5 L 270.0 389.5 L 268.5 391.0 L 267.5 393.0 L 266.5 395.0 L 265.5 397.0 L 264.0 398.5 L 262.5 400.0 L 261.5 402.0 L 260.5 404.0 L 259.0 405.5 L 258.0 407.5 L 256.5 409.0 L 255.0 410.5 L 254.0 412.5 L 252.5 414.0 L 251.0 415.5 L 249.5 417.0 L 248.0 418.5 L 246.5 420.0 L 245.0 421.5 L 243.5 423.0 L 241.5 424.0 L 239.5 425.0 Z"/><path d="M 578.5 204.0 L 581.0 203.5 L 583.0 202.5 L 585.0 201.5 L 586.5 200.0 L 588.0 198.5 L 590.0 197.5 L 591.5 196.0 L 593.0 194.5 L 594.5 193.0 L 596.0 191.5 L 597.5 190.0 L 599.0 188.5 L 600.0 186.5 L 601.5 185.0 L 602.5 183.0 L 604.0 181.5 L 605.0 179.5 L 604.5 178.0 L 602.0 177.5 L 600.0 178.5 L 597.0 178.5 L 594.0 178.5 L 592.0 177.5 L 589.0 177.5 L 587.0 176.5 L 585.5 175.0 L 583.5 174.0 L 582.0 172.5 L 580.5 172.0 L 579.5 174.0 L 578.0 175.5 L 577.0 177.5 L 576.0 179.5 L 575.0 181.5 L 574.0 183.5 L 573.5 186.0 L 572.5 188.0 L 572.0 190.5 L 571.5 193.0 L 570.5 195.0 L 570.5 198.0 L 571.5 200.0 L 572.5 202.0 L 574.0 203.5 L 576.0 204.5 L 578.5 204.0 Z"/><path d="M 375.0 310.5 L 372.0 310.5 L 369.0 310.5 L 366.0 310.5 L 363.0 310.5 L 361.5 309.0 L 363.0 307.5 L 365.0 306.5 L 367.0 305.5 L 369.0 304.5 L 371.0 303.5 L 373.0 302.5 L 375.5 302.0 L 378.0 301.5 L 380.0 300.5 L 382.0 299.5 L 385.0 299.5 L 387.0 298.5 L 389.0 297.5 L 391.5 297.0 L 394.0 296.5 L 396.0 295.5 L 399.0 295.5 L 401.0 294.5 L 403.5 294.0 L 406.0 293.5 L 408.0 292.5 L 411.0 292.5 L 413.0 291.5 L 415.5 291.0 L 418.0 290.5 L 420.0 289.5 L 422.5 289.0 L 425.0 288.5 L 427.0 287.5 L 429.5 287.0 L 432.0 286.5 L 434.0 285.5 L 437.0 285.5 L 439.0 284.5 L 441.5 284.0 L 444.0 283.5 L 446.0 282.5 L 449.0 282.5 L 451.0 281.5 L 453.5 281.0 L 456.0 280.5 L 458.0 279.5 L 461.0 279.5 L 463.0 278.5 L 465.5 278.0 L 468.0 277.5 L 471.0 277.5 L 473.0 276.5 L 475.0 275.5 L 477.5 275.0 L 480.0 274.5 L 482.5 274.0 L 485.0 273.5 L 487.0 272.5 L 489.5 272.0 L 492.0 271.5 L 494.0 270.5 L 496.5 270.0 L 499.0 269.5 L 501.5 269.0 L 504.0 268.5 L 506.0 267.5 L 508.5 267.0 L 511.0 266.5 L 513.0 265.5 L 516.0 265.5 L 518.0 264.5 L 521.0 264.5 L 523.0 263.5 L 525.5 263.0 L 528.0 262.5 L 530.0 261.5 L 533.0 261.5 L 535.0 260.5 L 537.5 260.0 L 540.0 259.5 L 542.0 258.5 L 545.0 258.5 L 547.0 257.5 L 550.0 257.5 L 552.0 256.5 L 554.5 256.0 L 557.0 255.5 L 559.0 254.5 L 562.0 254.5 L 564.0 253.5 L 567.0 253.5 L 569.0 252.5 L 571.0 251.5 L 574.0 251.5 L 576.5 251.0 L 579.0 250.5 L 581.0 249.5 L 584.0 249.5 L 586.0 248.5 L 589.0 248.5 L 591.0 247.5 L 594.0 247.5 L 596.0 246.5 L 599.0 246.5 L 601.0 245.5 L 603.5 245.0 L 606.0 244.5 L 608.0 243.5 L 611.0 243.5 L 613.0 242.5 L 616.0 242.5 L 618.0 241.5 L 620.5 241.0 L 623.0 240.5 L 625.0 239.5 L 628.0 239.5 L 630.0 238.5 L 633.0 238.5 L 635.0 237.5 L 638.0 237.5 L 640.0 236.5 L 642.5 236.0 L 645.0 235.5 L 647.0 234.5 L 650.0 234.5 L 652.0 233.5 L 655.0 233.5 L 657.0 232.5 L 660.0 232.5 L 662.0 231.5 L 664.0 230.5 L 667.0 230.5 L 669.0 229.5 L 671.5 229.0 L 674.0 228.5 L 676.0 227.5 L 678.5 227.0 L 681.0 226.5 L 684.0 226.5 L 686.0 225.5 L 689.0 225.5 L 691.0 224.5 L 693.0 223.5 L 696.0 223.5 L 698.0 222.5 L 701.0 222.5 L 703.0 221.5 L 705.5 221.0 L 708.0 220.5 L 711.0 220.5 L 713.0 219.5 L 715.0 218.5 L 718.0 218.5 L 720.0 217.5 L 722.5 217.0 L 725.0 216.5 L 727.5 216.0 L 730.0 215.5 L 732.0 214.5 L 735.0 214.5 L 737.0 213.5 L 739.5 213.0 L 742.0 212.5 L 744.5 212.0 L 747.0 211.5 L 749.0 210.5 L 752.0 210.5 L 754.0 209.5 L 756.5 209.0 L 759.0 208.5 L 761.0 207.5 L 764.0 207.5 L 766.0 206.5 L 769.0 206.5 L 771.0 205.5 L 773.5 205.0 L 776.0 204.5 L 778.5 204.0 L 781.0 203.5 L 783.0 202.5 L 786.0 202.5 L 788.0 201.5 L 791.0 201.5 L 793.0 200.5 L 795.5 200.0 L 798.0 199.5 L 800.0 198.5 L 803.0 198.5 L 805.0 197.5 L 808.0 197.5 L 810.0 196.5 L 813.0 196.5 L 815.0 195.5 L 817.5 195.0 L 820.0 194.5 L 822.0 193.5 L 825.0 193.5 L 827.0 192.5 L 829.5 192.0 L 832.0 191.5 L 834.0 190.5 L 837.0 190.5 L 839.0 189.5 L 842.0 189.5 L 844.0 188.5 L 847.0 188.5 L 846.0 189.5 L 843.5 190.0 L 841.0 190.5 L 839.0 191.5 L 836.0 191.5 L 834.0 192.5 L 831.5 193.0 L 829.0 193.5 L 827.0 194.5 L 824.0 194.5 L 822.0 195.5 L 819.0 195.5 L 817.0 196.5 L 815.0 197.5 L 812.5 198.0 L 810.0 198.5 L 808.0 199.5 L 805.0 199.5 L 803.0 200.5 L 800.5 201.0 L 798.0 201.5 L 796.0 202.5 L 793.0 202.5 L 791.0 203.5 L 788.5 204.0 L 786.0 204.5 L 784.0 205.5 L 781.5 206.0 L 779.0 206.5 L 776.5 207.0 L 774.0 207.5 L 772.0 208.5 L 769.0 208.5 L 767.0 209.5 L 764.5 210.0 L 762.0 210.5 L 760.0 211.5 L 757.5 212.0 L 755.0 212.5 L 753.0 213.5 L 750.5 214.0 L 748.0 214.5 L 746.0 215.5 L 743.5 216.0 L 741.0 216.5 L 739.0 217.5 L 736.0 217.5 L 734.0 218.5 L 731.5 219.0 L 729.0 219.5 L 727.0 220.5 L 724.0 220.5 L 722.0 221.5 L 720.0 222.5 L 717.0 222.5 L 715.0 223.5 L 712.5 224.0 L 710.0 224.5 L 708.0 225.5 L 705.5 226.0 L 703.0 226.5 L 700.5 227.0 L 698.0 227.5 L 695.5 228.0 L 693.0 228.5 L 691.0 229.5 L 688.5 230.0 L 686.0 230.5 L 684.0 231.5 L 681.0 231.5 L 679.0 232.5 L 677.0 233.5 L 674.0 233.5 L 672.0 234.5 L 669.0 234.5 L 667.0 235.5 L 664.5 236.0 L 662.0 236.5 L 660.0 237.5 L 657.5 238.0 L 655.0 238.5 L 653.0 239.5 L 650.0 239.5 L 648.0 240.5 L 646.0 241.5 L 643.0 241.5 L 641.0 242.5 L 638.5 243.0 L 636.0 243.5 L 633.5 244.0 L 631.0 244.5 L 629.0 245.5 L 626.5 246.0 L 624.0 246.5 L 622.0 247.5 L 619.0 247.5 L 617.0 248.5 L 615.0 249.5 L 612.0 249.5 L 610.0 250.5 L 607.0 250.5 L 605.0 251.5 L 602.5 252.0 L 600.0 252.5 L 598.0 253.5 L 595.0 253.5 L 593.0 254.5 L 591.0 255.5 L 588.0 255.5 L 586.0 256.5 L 583.0 256.5 L 581.0 257.5 L 578.5 258.0 L 576.0 258.5 L 574.0 259.5 L 571.0 259.5 L 569.0 260.5 L 566.5 261.0 L 564.0 261.5 L 561.5 262.0 L 559.0 262.5 L 557.0 263.5 L 554.0 263.5 L 552.0 264.5 L 549.0 264.5 L 547.0 265.5 L 545.0 266.5 L 542.0 266.5 L 540.0 267.5 L 538.0 268.5 L 535.0 268.5 L 533.0 269.5 L 530.5 270.0 L 528.0 270.5 L 526.0 271.5 L 523.5 272.0 L 521.0 272.5 L 519.0 273.5 L 516.0 273.5 L 514.0 274.5 L 511.5 275.0 L 509.0 275.5 L 507.0 276.5 L 504.5 277.0 L 502.0 277.5 L 500.0 278.5 L 497.0 278.5 L 495.0 279.5 L 493.0 280.5 L 490.0 280.5 L 488.0 281.5 L 486.0 282.5 L 483.0 282.5 L 481.0 283.5 L 479.0 284.5 L 476.0 284.5 L 474.0 285.5 L 471.5 286.0 L 469.0 286.5 L 466.5 287.0 L 464.0 287.5 L 462.0 288.5 L 460.0 289.5 L 457.0 289.5 L 455.0 290.5 L 452.5 291.0 L 450.0 291.5 L 448.0 292.5 L 445.0 292.5 L 443.0 293.5 L 441.0 294.5 L 438.0 294.5 L 436.0 295.5 L 433.5 296.0 L 431.0 296.5 L 429.0 297.5 L 426.5 298.0 L 424.0 298.5 L 421.5 299.0 L 419.0 299.5 L 417.0 300.5 L 414.5 301.0 L 412.0 301.5 L 410.0 302.5 L 407.0 302.5 L 405.0 303.5 L 402.0 303.5 L 400.0 304.5 L 397.5 305.0 L 395.0 305.5 L 392.5 306.0 L 390.0 306.5 L 388.0 307.5 L 385.0 307.5 L 383.0 308.5 L 380.5 309.0 L 378.0 309.5 L 375.5 310.0 Z"/><path d="M 239.5 418.0 L 241.0 416.5 L 243.0 415.5 L 244.5 414.0 L 246.0 412.5 L 247.5 411.0 L 248.5 409.0 L 250.0 407.5 L 251.5 406.0 L 252.5 404.0 L 254.0 402.5 L 255.0 400.5 L 256.5 399.0 L 257.5 397.0 L 259.0 395.5 L 260.5 394.0 L 261.5 392.0 L 263.0 390.5 L 264.0 388.5 L 265.0 386.5 L 266.0 384.5 L 267.5 383.0 L 268.5 381.0 L 269.5 379.0 L 270.5 377.0 L 271.5 375.0 L 272.5 373.0 L 274.0 371.5 L 275.0 369.5 L 276.0 367.5 L 277.0 365.5 L 277.5 363.0 L 278.5 361.0 L 279.5 359.0 L 280.5 357.0 L 281.5 355.0 L 282.5 353.0 L 283.5 351.0 L 284.5 349.0 L 285.0 346.5 L 286.0 344.5 L 287.0 342.5 L 287.5 340.0 L 288.5 338.0 L 289.5 336.0 L 290.5 334.0 L 291.0 331.5 L 291.5 329.0 L 292.5 327.0 L 293.5 325.0 L 294.5 323.0 L 295.0 320.5 L 296.0 318.5 L 296.5 316.0 L 297.5 314.0 L 298.5 312.0 L 299.0 309.5 L 299.5 307.0 L 300.5 305.0 L 301.0 302.5 L 301.5 300.0 L 302.5 298.0 L 303.5 296.0 L 304.0 293.5 L 303.5 292.0 L 302.0 292.5 L 300.5 294.0 L 299.0 295.5 L 298.0 297.5 L 296.5 299.0 L 295.0 300.5 L 294.0 302.5 L 292.5 304.0 L 291.5 306.0 L 290.0 307.5 L 289.0 309.5 L 287.5 311.0 L 286.0 312.5 L 285.0 314.5 L 283.5 316.0 L 282.5 318.0 L 281.5 320.0 L 280.0 321.5 L 279.0 323.5 L 277.5 325.0 L 276.5 327.0 L 275.5 329.0 L 274.0 330.5 L 273.0 332.5 L 271.5 334.0 L 270.5 336.0 L 269.5 338.0 L 268.0 339.5 L 267.0 341.5 L 266.0 343.5 L 264.5 345.0 L 263.5 347.0 L 262.5 349.0 L 261.0 350.5 L 260.0 352.5 L 259.0 354.5 L 258.0 356.5 L 256.5 358.0 L 255.5 360.0 L 254.5 362.0 L 253.5 364.0 L 252.5 366.0 L 251.5 368.0 L 250.5 370.0 L 249.5 372.0 L 248.5 374.0 L 247.5 376.0 L 246.5 378.0 L 245.5 380.0 L 244.5 382.0 L 243.5 384.0 L 242.5 386.0 L 241.5 388.0 L 241.0 390.5 L 240.5 393.0 L 239.5 395.0 L 239.0 397.5 L 238.5 400.0 L 238.0 402.5 L 237.5 405.0 L 237.5 408.0 L 236.5 410.0 L 237.5 412.0 L 237.5 415.0 L 238.0 417.5 L 239.5 418.0 Z"/>
  </g>
</svg>